<?xml version="1.0" encoding="utf-8"?>
<!-- Generator: Adobe Illustrator 16.0.0, SVG Export Plug-In . SVG Version: 6.00 Build 0)  -->
<!DOCTYPE svg PUBLIC "-//W3C//DTD SVG 1.1//EN" "http://www.w3.org/Graphics/SVG/1.1/DTD/svg11.dtd">
<svg version="1.1" id="Layer_1" xmlns="http://www.w3.org/2000/svg" xmlns:xlink="http://www.w3.org/1999/xlink" x="0px" y="0px"
	 width="527px" height="414px" viewBox="0 0 527 414" enable-background="new 0 0 527 414" xml:space="preserve">
<g>
	<path d="M79.313,187.648c0,0,2.347-1.978,3.783-1.079c1.445,0.899,11.174,11.535,13.694,14.231
		c2.523,2.708,8.105,9.907,8.831,12.073c0.717,2.166,0.717,5.045,1.797,9.906c1.076,4.863,3.599,9.727,4.502,12.244
		c0.899,2.525,1.444,7.209,1.079,9.373c-0.353,2.16-9.545,10.627-15.126,15.131c-5.585,4.502-21.077,25.035-25.583,30.615
		c-4.502,5.592-23.423,27.572-25.579,30.449c-2.166,2.885-7.57,8.107-9.01,10.813c-1.441,2.709-4.146,2.889-5.225,4.506
		c-1.075,1.617-2.7,6.299-3.963,8.277c-1.256,1.986-1.982,4.326-2.336,5.764c-0.357,1.447-1.44,4.691-1.981,6.848
		c-0.545,2.166-2.52,8.469-2.708,9.908c-0.172,1.445-0.354,5.229,0,5.951c0.369,0.719-12.242,16.936-12.61,19.271
		c-0.357,2.346,6.491-5.051,6.491-5.051L7.264,413c0,0,19.994-10.443,35.666-23.055c15.668-12.605,35.846-28.822,35.846-28.822
		s2.885,2.156,6.123,4.682c3.242,2.527,7.391,5.045,10.448,8.648c0,0,7.3,8.877,8.108,10.361c0.809,1.486,1.083,3.104,1.083,3.104
		s-5.949-0.398-9.191-2.432c-3.242-2.025-6.347-3.104-8.644-2.156c-2.299,0.945-4.996,7.566-4.867,7.834
		c0.138,0.264,3.788-5.137,5.141-5.535c1.347-0.406,0.264,1.076,0,1.484c-0.274,0.406-0.274,0.406-0.274,0.406l-1.625,3.234
		c0,0,3.921-4.178,5.538-4.178c1.632,0,1.632,0,1.632,0v4.719c0,0-4.199,0.133-6.361,1.221c-2.159,1.076-1.747,3.115-0.809,4.457
		c0.953,1.344,1.755,1.078,2.029,2.43c0.271,1.354,0,4.854,0,4.854h48.5v4.873c0,0,2.3-5.541,2.708-7.559
		c0.401-2.033,2.029-1.363,2.7-0.549c0.676,0.813,1.618,2.299,1.488,3.785c-0.137,1.484-0.678,4.191-0.678,4.191
		s4.19-8.375-0.275-11.346c-4.451-2.969-4.051-2.846-4.721-4.863c-0.679-2.035-0.268-2.979-0.268-2.979s1.072-0.398,2.556,0
		c1.491,0.406,5.408,3.111,5.545,3.781c0.133,0.684-0.802-6.072-9.055-6.213c-8.237-0.131-11.212,1.078-13.234,0.943
		c-2.029-0.129-6.621-1.746-12.163-7.018c-5.535-5.271-16.214-15.951-16.214-15.951s-1.076-3.104-0.675-6.209
		c0.412-3.113,1.758-5.271,3.376-6.619c1.625-1.354,17.435-8.109,20.268-9.598c2.837-1.482,12.163-7.424,12.427-8.512
		c0.274-1.07,1.898,6.488,4.328,7.711c2.43,1.211,2.163,0.129,3.513-2.17c1.35-2.295,5.667-10.801,6.08-13.773
		c0.404-2.969,0.137-5.678,0.137-5.678s6.483-5.547,8.375-12.705c1.893-7.154,6.755-23.238,6.889-30.525
		c0.129-7.293,0.813-10.012,0.675-11.492c-0.138-1.479,7.697-5.127,6.35-9.32c-1.35-4.186-3.783-6.758-4.317-7.021
		c-0.542-0.275,0.13-5.543-1.632-9.053c-1.754-3.512-7.018-8.385-7.018-8.385s0.129-7.152-1.221-9.453
		c-1.353-2.299-3.105-4.178-3.916-6.623c-0.81-2.42-3.651-9.989-8.373-14.445c-4.73-4.465-8.383-7.57-10.542-8.242
		c-2.159-0.682-5.137-0.946-8.509,0c-3.383,0.938-4.192,3.509-12.163-0.682C100.076,188.367,81.66,178.689,79.313,187.648z"/>
	<circle cx="273.976" cy="95.483" r="83.179"/>
	<path d="M364.465,3.063c-3.717,0,0,190.655,0,190.655h155.352l-64.728-81.204C455.089,112.514,578.66,3.063,364.465,3.063z"/>
	<path d="M174.518,223.557l86.263,184.381l69.005-184.381c0,0-29.573,16.789-55.451,19.252
		c-25.879,2.467-22.182,51.758-22.182,51.758S253.383,238.807,174.518,223.557z"/>
	<path d="M339.167,228.37c0,0-21.504,170.057,87.67,166.359c109.169-3.697,59.547-170.057,59.547-186.074
		c0-7.283-30.424-3.872-63.607,2.018C382.958,217.741,339.167,228.37,339.167,228.37z"/>
	<path d="M202.862,359.067c0,10.209-8.278,18.482-18.484,18.482c-10.207,0-18.485-8.273-18.485-18.482
		c0-10.211,8.279-18.484,18.485-18.484C194.583,340.583,202.862,348.856,202.862,359.067z"/>
	<path d="M146.12,95.755c0,0-43.807,22.188-34.813-14.257c8.993-36.445,67.045,12.846,79.096,10.166
		c12.051-2.675-3.242-50.116,1.256-68.337c4.495-18.221-117.007-43.2-154.047,35.323c-37.041,78.522,112.725,169.105,151.409,70.175
		"/>
</g>
</svg>
